<mxfile host="65bd71144e">
    <diagram name="Page-1" id="Ei5oFpeLK8a0ol1k6TtE">
        <mxGraphModel dx="3174" dy="1126" grid="1" gridSize="10" guides="1" tooltips="1" connect="1" arrows="1" fold="1" page="1" pageScale="1" pageWidth="827" pageHeight="1169" math="0" shadow="0">
            <root>
                <mxCell id="0"/>
                <mxCell id="1" parent="0"/>
                <mxCell id="DEdySj9RBdpoS25cQ73x-8" value="" style="rounded=0;whiteSpace=wrap;html=1;fillColor=#ffe6cc;strokeColor=#d79b00;opacity=40;strokeWidth=2;" parent="1" vertex="1">
                    <mxGeometry x="-1320" y="230" width="1160" height="120" as="geometry"/>
                </mxCell>
                <mxCell id="WBdNPpH1fwiA06EQCPNH-10" style="edgeStyle=orthogonalEdgeStyle;rounded=0;orthogonalLoop=1;jettySize=auto;html=1;exitX=1;exitY=0;exitDx=0;exitDy=0;" parent="1" source="WBdNPpH1fwiA06EQCPNH-3" target="WBdNPpH1fwiA06EQCPNH-9" edge="1">
                    <mxGeometry relative="1" as="geometry"/>
                </mxCell>
                <mxCell id="WBdNPpH1fwiA06EQCPNH-11" value="Dessin synchrone" style="edgeLabel;html=1;align=center;verticalAlign=middle;resizable=0;points=[];" parent="WBdNPpH1fwiA06EQCPNH-10" vertex="1" connectable="0">
                    <mxGeometry x="-0.3373" y="-1" relative="1" as="geometry">
                        <mxPoint x="87" y="-31" as="offset"/>
                    </mxGeometry>
                </mxCell>
                <mxCell id="DEdySj9RBdpoS25cQ73x-11" value="" style="rounded=0;whiteSpace=wrap;html=1;fillColor=#f8cecc;strokeColor=#b85450;opacity=40;direction=east;" parent="1" vertex="1">
                    <mxGeometry x="-1320" y="450" width="1170" height="270" as="geometry"/>
                </mxCell>
                <mxCell id="WBdNPpH1fwiA06EQCPNH-13" style="edgeStyle=orthogonalEdgeStyle;rounded=0;orthogonalLoop=1;jettySize=auto;html=1;exitX=0.75;exitY=0;exitDx=0;exitDy=0;entryX=0.25;entryY=1;entryDx=0;entryDy=0;" parent="1" target="WBdNPpH1fwiA06EQCPNH-9" edge="1">
                    <mxGeometry relative="1" as="geometry">
                        <Array as="points">
                            <mxPoint x="254" y="210"/>
                        </Array>
                        <mxPoint x="271.5" y="210" as="sourcePoint"/>
                        <mxPoint x="234.00000000000023" y="90" as="targetPoint"/>
                    </mxGeometry>
                </mxCell>
                <mxCell id="WBdNPpH1fwiA06EQCPNH-14" value="&lt;div&gt;Déplacement synchrone&lt;/div&gt;&lt;div&gt;&amp;nbsp;des perso&lt;/div&gt;" style="edgeLabel;html=1;align=center;verticalAlign=middle;resizable=0;points=[];" parent="WBdNPpH1fwiA06EQCPNH-13" vertex="1" connectable="0">
                    <mxGeometry x="-0.1619" y="-1" relative="1" as="geometry">
                        <mxPoint x="9" y="-55" as="offset"/>
                    </mxGeometry>
                </mxCell>
                <mxCell id="WBdNPpH1fwiA06EQCPNH-20" style="edgeStyle=orthogonalEdgeStyle;rounded=0;orthogonalLoop=1;jettySize=auto;html=1;exitX=1;exitY=0.75;exitDx=0;exitDy=0;entryX=0;entryY=0.75;entryDx=0;entryDy=0;" parent="1" source="WBdNPpH1fwiA06EQCPNH-3" target="WBdNPpH1fwiA06EQCPNH-17" edge="1">
                    <mxGeometry relative="1" as="geometry"/>
                </mxCell>
                <mxCell id="WBdNPpH1fwiA06EQCPNH-21" value="&lt;div&gt;Envoie un msg&lt;/div&gt;" style="edgeLabel;html=1;align=center;verticalAlign=middle;resizable=0;points=[];" parent="WBdNPpH1fwiA06EQCPNH-20" vertex="1" connectable="0">
                    <mxGeometry x="-0.1913" relative="1" as="geometry">
                        <mxPoint as="offset"/>
                    </mxGeometry>
                </mxCell>
                <mxCell id="orV150WAPLaEgthSAnhB-5" style="edgeStyle=orthogonalEdgeStyle;rounded=0;orthogonalLoop=1;jettySize=auto;html=1;exitX=0;exitY=0.75;exitDx=0;exitDy=0;entryX=1;entryY=0.75;entryDx=0;entryDy=0;" parent="1" source="WBdNPpH1fwiA06EQCPNH-3" target="orV150WAPLaEgthSAnhB-1" edge="1">
                    <mxGeometry relative="1" as="geometry"/>
                </mxCell>
                <mxCell id="orV150WAPLaEgthSAnhB-6" value="Envoie msg" style="edgeLabel;html=1;align=center;verticalAlign=middle;resizable=0;points=[];" parent="orV150WAPLaEgthSAnhB-5" connectable="0" vertex="1">
                    <mxGeometry x="0.28" relative="1" as="geometry">
                        <mxPoint x="14" as="offset"/>
                    </mxGeometry>
                </mxCell>
                <mxCell id="WBdNPpH1fwiA06EQCPNH-3" value="Tél 1" style="html=1;whiteSpace=wrap;" parent="1" vertex="1">
                    <mxGeometry x="254" y="200" width="50" height="90" as="geometry"/>
                </mxCell>
                <mxCell id="WBdNPpH1fwiA06EQCPNH-9" value="Commun Screen" style="html=1;whiteSpace=wrap;" parent="1" vertex="1">
                    <mxGeometry x="104" y="30" width="600" height="50" as="geometry"/>
                </mxCell>
                <mxCell id="WBdNPpH1fwiA06EQCPNH-18" style="edgeStyle=orthogonalEdgeStyle;rounded=0;orthogonalLoop=1;jettySize=auto;html=1;exitX=0;exitY=0.5;exitDx=0;exitDy=0;entryX=1;entryY=0.5;entryDx=0;entryDy=0;" parent="1" source="WBdNPpH1fwiA06EQCPNH-17" target="WBdNPpH1fwiA06EQCPNH-3" edge="1">
                    <mxGeometry relative="1" as="geometry">
                        <Array as="points">
                            <mxPoint x="554" y="245"/>
                        </Array>
                    </mxGeometry>
                </mxCell>
                <mxCell id="WBdNPpH1fwiA06EQCPNH-19" value="Envoie un msg" style="edgeLabel;html=1;align=center;verticalAlign=middle;resizable=0;points=[];" parent="WBdNPpH1fwiA06EQCPNH-18" vertex="1" connectable="0">
                    <mxGeometry x="-0.18" y="-1" relative="1" as="geometry">
                        <mxPoint as="offset"/>
                    </mxGeometry>
                </mxCell>
                <mxCell id="orV150WAPLaEgthSAnhB-12" style="edgeStyle=orthogonalEdgeStyle;rounded=0;orthogonalLoop=1;jettySize=auto;html=1;entryX=0;entryY=0.5;entryDx=0;entryDy=0;" parent="1" edge="1">
                    <mxGeometry relative="1" as="geometry">
                        <mxPoint x="640" y="290" as="sourcePoint"/>
                        <mxPoint x="740" y="335" as="targetPoint"/>
                        <Array as="points">
                            <mxPoint x="639" y="270"/>
                            <mxPoint x="639" y="320"/>
                            <mxPoint x="640" y="320"/>
                            <mxPoint x="640" y="335"/>
                        </Array>
                    </mxGeometry>
                </mxCell>
                <mxCell id="orV150WAPLaEgthSAnhB-17" value="Signal sonor" style="edgeLabel;html=1;align=center;verticalAlign=middle;resizable=0;points=[];" parent="orV150WAPLaEgthSAnhB-12" connectable="0" vertex="1">
                    <mxGeometry x="0.5767" y="1" relative="1" as="geometry">
                        <mxPoint as="offset"/>
                    </mxGeometry>
                </mxCell>
                <mxCell id="orV150WAPLaEgthSAnhB-13" style="edgeStyle=orthogonalEdgeStyle;rounded=0;orthogonalLoop=1;jettySize=auto;html=1;exitX=1;exitY=0.5;exitDx=0;exitDy=0;entryX=0.5;entryY=0;entryDx=0;entryDy=0;" parent="1" source="WBdNPpH1fwiA06EQCPNH-17" target="orV150WAPLaEgthSAnhB-9" edge="1">
                    <mxGeometry relative="1" as="geometry">
                        <Array as="points">
                            <mxPoint x="702" y="255"/>
                            <mxPoint x="702" y="250"/>
                            <mxPoint x="770" y="250"/>
                        </Array>
                    </mxGeometry>
                </mxCell>
                <mxCell id="orV150WAPLaEgthSAnhB-16" value="On/off" style="edgeLabel;html=1;align=center;verticalAlign=middle;resizable=0;points=[];" parent="orV150WAPLaEgthSAnhB-13" connectable="0" vertex="1">
                    <mxGeometry x="0.431" relative="1" as="geometry">
                        <mxPoint as="offset"/>
                    </mxGeometry>
                </mxCell>
                <mxCell id="orV150WAPLaEgthSAnhB-14" style="edgeStyle=orthogonalEdgeStyle;rounded=0;orthogonalLoop=1;jettySize=auto;html=1;exitX=1;exitY=0.25;exitDx=0;exitDy=0;" parent="1" edge="1">
                    <mxGeometry relative="1" as="geometry">
                        <mxPoint x="664" y="232.5" as="sourcePoint"/>
                        <mxPoint x="770" y="210" as="targetPoint"/>
                    </mxGeometry>
                </mxCell>
                <mxCell id="orV150WAPLaEgthSAnhB-15" value="Ouvre/Ferme" style="edgeLabel;html=1;align=center;verticalAlign=middle;resizable=0;points=[];" parent="orV150WAPLaEgthSAnhB-14" connectable="0" vertex="1">
                    <mxGeometry x="0.1304" y="-1" relative="1" as="geometry">
                        <mxPoint x="-17" y="-4" as="offset"/>
                    </mxGeometry>
                </mxCell>
                <mxCell id="WBdNPpH1fwiA06EQCPNH-17" value="&lt;div&gt;Laptop MJ&lt;/div&gt;" style="html=1;whiteSpace=wrap;" parent="1" vertex="1">
                    <mxGeometry x="554" y="230" width="110" height="50" as="geometry"/>
                </mxCell>
                <mxCell id="WBdNPpH1fwiA06EQCPNH-22" style="edgeStyle=orthogonalEdgeStyle;rounded=0;orthogonalLoop=1;jettySize=auto;html=1;exitX=0.25;exitY=0;exitDx=0;exitDy=0;entryX=0.76;entryY=1.02;entryDx=0;entryDy=0;entryPerimeter=0;" parent="1" source="WBdNPpH1fwiA06EQCPNH-17" target="WBdNPpH1fwiA06EQCPNH-9" edge="1">
                    <mxGeometry relative="1" as="geometry">
                        <Array as="points">
                            <mxPoint x="582" y="176"/>
                            <mxPoint x="560" y="176"/>
                        </Array>
                    </mxGeometry>
                </mxCell>
                <mxCell id="WBdNPpH1fwiA06EQCPNH-23" value="Dessin synchrone" style="edgeLabel;html=1;align=center;verticalAlign=middle;resizable=0;points=[];" parent="WBdNPpH1fwiA06EQCPNH-22" vertex="1" connectable="0">
                    <mxGeometry x="-0.0384" y="3" relative="1" as="geometry">
                        <mxPoint x="3" y="-64" as="offset"/>
                    </mxGeometry>
                </mxCell>
                <mxCell id="WBdNPpH1fwiA06EQCPNH-24" style="edgeStyle=orthogonalEdgeStyle;rounded=0;orthogonalLoop=1;jettySize=auto;html=1;exitX=0.5;exitY=0;exitDx=0;exitDy=0;" parent="1" source="WBdNPpH1fwiA06EQCPNH-17" edge="1">
                    <mxGeometry relative="1" as="geometry">
                        <mxPoint x="610" y="86" as="targetPoint"/>
                    </mxGeometry>
                </mxCell>
                <mxCell id="WBdNPpH1fwiA06EQCPNH-25" value="&lt;div&gt;Add/suppr Element&lt;/div&gt;&lt;div&gt;de l'environnement&lt;/div&gt;" style="edgeLabel;html=1;align=center;verticalAlign=middle;resizable=0;points=[];" parent="WBdNPpH1fwiA06EQCPNH-24" vertex="1" connectable="0">
                    <mxGeometry x="0.34" y="3" relative="1" as="geometry">
                        <mxPoint x="2" y="2" as="offset"/>
                    </mxGeometry>
                </mxCell>
                <mxCell id="WBdNPpH1fwiA06EQCPNH-26" style="edgeStyle=orthogonalEdgeStyle;rounded=0;orthogonalLoop=1;jettySize=auto;html=1;exitX=0.75;exitY=0;exitDx=0;exitDy=0;entryX=0.954;entryY=1.064;entryDx=0;entryDy=0;entryPerimeter=0;" parent="1" source="WBdNPpH1fwiA06EQCPNH-17" target="WBdNPpH1fwiA06EQCPNH-9" edge="1">
                    <mxGeometry relative="1" as="geometry">
                        <Array as="points">
                            <mxPoint x="637" y="155"/>
                            <mxPoint x="676" y="155"/>
                            <mxPoint x="676" y="130"/>
                        </Array>
                    </mxGeometry>
                </mxCell>
                <mxCell id="WBdNPpH1fwiA06EQCPNH-27" value="&lt;div&gt;Change le terrain&lt;/div&gt;" style="edgeLabel;html=1;align=center;verticalAlign=middle;resizable=0;points=[];" parent="WBdNPpH1fwiA06EQCPNH-26" vertex="1" connectable="0">
                    <mxGeometry x="-0.8003" y="2" relative="1" as="geometry">
                        <mxPoint x="36" y="-106" as="offset"/>
                    </mxGeometry>
                </mxCell>
                <mxCell id="orV150WAPLaEgthSAnhB-2" style="edgeStyle=orthogonalEdgeStyle;rounded=0;orthogonalLoop=1;jettySize=auto;html=1;exitX=1;exitY=0.25;exitDx=0;exitDy=0;entryX=0;entryY=0.25;entryDx=0;entryDy=0;" parent="1" source="orV150WAPLaEgthSAnhB-1" target="WBdNPpH1fwiA06EQCPNH-3" edge="1">
                    <mxGeometry relative="1" as="geometry"/>
                </mxCell>
                <mxCell id="orV150WAPLaEgthSAnhB-3" value="Envoie msg" style="edgeLabel;html=1;align=center;verticalAlign=middle;resizable=0;points=[];" parent="orV150WAPLaEgthSAnhB-2" connectable="0" vertex="1">
                    <mxGeometry x="-0.28" relative="1" as="geometry">
                        <mxPoint x="14" y="1" as="offset"/>
                    </mxGeometry>
                </mxCell>
                <mxCell id="orV150WAPLaEgthSAnhB-1" value="Tel X" style="html=1;whiteSpace=wrap;" parent="1" vertex="1">
                    <mxGeometry x="104" y="200" width="50" height="90" as="geometry"/>
                </mxCell>
                <mxCell id="orV150WAPLaEgthSAnhB-9" value="Lumière" style="html=1;whiteSpace=wrap;" parent="1" vertex="1">
                    <mxGeometry x="740" y="260" width="60" height="50" as="geometry"/>
                </mxCell>
                <mxCell id="orV150WAPLaEgthSAnhB-10" value="Volet" style="html=1;whiteSpace=wrap;" parent="1" vertex="1">
                    <mxGeometry x="740" y="170" width="60" height="50" as="geometry"/>
                </mxCell>
                <mxCell id="orV150WAPLaEgthSAnhB-11" value="Enceinte" style="html=1;whiteSpace=wrap;" parent="1" vertex="1">
                    <mxGeometry x="740" y="320" width="60" height="50" as="geometry"/>
                </mxCell>
                <mxCell id="orV150WAPLaEgthSAnhB-57" style="edgeStyle=orthogonalEdgeStyle;rounded=0;orthogonalLoop=1;jettySize=auto;html=1;exitX=1;exitY=0;exitDx=0;exitDy=0;" parent="1" source="orV150WAPLaEgthSAnhB-65" target="orV150WAPLaEgthSAnhB-66" edge="1">
                    <mxGeometry relative="1" as="geometry"/>
                </mxCell>
                <mxCell id="orV150WAPLaEgthSAnhB-58" value="Dessin synchrone" style="edgeLabel;html=1;align=center;verticalAlign=middle;resizable=0;points=[];" parent="orV150WAPLaEgthSAnhB-57" connectable="0" vertex="1">
                    <mxGeometry x="-0.3373" y="-1" relative="1" as="geometry">
                        <mxPoint x="87" y="-31" as="offset"/>
                    </mxGeometry>
                </mxCell>
                <mxCell id="orV150WAPLaEgthSAnhB-59" style="edgeStyle=orthogonalEdgeStyle;rounded=0;orthogonalLoop=1;jettySize=auto;html=1;exitX=0.017;exitY=0.145;exitDx=0;exitDy=0;entryX=0.25;entryY=1;entryDx=0;entryDy=0;exitPerimeter=0;" parent="1" source="orV150WAPLaEgthSAnhB-65" target="orV150WAPLaEgthSAnhB-66" edge="1">
                    <mxGeometry relative="1" as="geometry">
                        <Array as="points">
                            <mxPoint x="241" y="660"/>
                            <mxPoint x="240" y="660"/>
                        </Array>
                        <mxPoint x="257.5" y="660" as="sourcePoint"/>
                        <mxPoint x="220.00000000000023" y="540" as="targetPoint"/>
                    </mxGeometry>
                </mxCell>
                <mxCell id="orV150WAPLaEgthSAnhB-60" value="&lt;div&gt;Déplacement synchrone&lt;/div&gt;&lt;div&gt;&amp;nbsp;des perso&lt;/div&gt;" style="edgeLabel;html=1;align=center;verticalAlign=middle;resizable=0;points=[];" parent="orV150WAPLaEgthSAnhB-59" connectable="0" vertex="1">
                    <mxGeometry x="-0.1619" y="-1" relative="1" as="geometry">
                        <mxPoint x="9" y="-55" as="offset"/>
                    </mxGeometry>
                </mxCell>
                <mxCell id="orV150WAPLaEgthSAnhB-61" style="edgeStyle=orthogonalEdgeStyle;rounded=0;orthogonalLoop=1;jettySize=auto;html=1;exitX=1;exitY=0.75;exitDx=0;exitDy=0;entryX=0;entryY=0.75;entryDx=0;entryDy=0;" parent="1" source="orV150WAPLaEgthSAnhB-65" target="orV150WAPLaEgthSAnhB-75" edge="1">
                    <mxGeometry relative="1" as="geometry">
                        <Array as="points">
                            <mxPoint x="490" y="748"/>
                            <mxPoint x="490" y="728"/>
                        </Array>
                    </mxGeometry>
                </mxCell>
                <mxCell id="orV150WAPLaEgthSAnhB-62" value="demande MAJ" style="edgeLabel;html=1;align=center;verticalAlign=middle;resizable=0;points=[];" parent="orV150WAPLaEgthSAnhB-61" connectable="0" vertex="1">
                    <mxGeometry x="-0.1913" relative="1" as="geometry">
                        <mxPoint as="offset"/>
                    </mxGeometry>
                </mxCell>
                <mxCell id="orV150WAPLaEgthSAnhB-63" style="edgeStyle=orthogonalEdgeStyle;rounded=0;orthogonalLoop=1;jettySize=auto;html=1;exitX=0;exitY=0.75;exitDx=0;exitDy=0;entryX=1;entryY=0.75;entryDx=0;entryDy=0;" parent="1" source="orV150WAPLaEgthSAnhB-65" target="orV150WAPLaEgthSAnhB-84" edge="1">
                    <mxGeometry relative="1" as="geometry"/>
                </mxCell>
                <mxCell id="orV150WAPLaEgthSAnhB-64" value="Envoie msg" style="edgeLabel;html=1;align=center;verticalAlign=middle;resizable=0;points=[];" parent="orV150WAPLaEgthSAnhB-63" connectable="0" vertex="1">
                    <mxGeometry x="0.28" relative="1" as="geometry">
                        <mxPoint x="14" as="offset"/>
                    </mxGeometry>
                </mxCell>
                <mxCell id="orV150WAPLaEgthSAnhB-65" value="&lt;div&gt;Interface&lt;/div&gt;&lt;div&gt;PJ&lt;br&gt;&lt;/div&gt;" style="html=1;whiteSpace=wrap;" parent="1" vertex="1">
                    <mxGeometry x="240" y="680" width="50" height="90" as="geometry"/>
                </mxCell>
                <mxCell id="orV150WAPLaEgthSAnhB-66" value="Interface commune" style="html=1;whiteSpace=wrap;" parent="1" vertex="1">
                    <mxGeometry x="90" y="480" width="600" height="50" as="geometry"/>
                </mxCell>
                <mxCell id="orV150WAPLaEgthSAnhB-67" style="edgeStyle=orthogonalEdgeStyle;rounded=0;orthogonalLoop=1;jettySize=auto;html=1;exitX=0;exitY=0.5;exitDx=0;exitDy=0;entryX=1;entryY=0.5;entryDx=0;entryDy=0;" parent="1" source="orV150WAPLaEgthSAnhB-75" target="orV150WAPLaEgthSAnhB-65" edge="1">
                    <mxGeometry relative="1" as="geometry">
                        <Array as="points">
                            <mxPoint x="510" y="695"/>
                            <mxPoint x="540" y="695"/>
                            <mxPoint x="540" y="710"/>
                            <mxPoint x="410" y="710"/>
                            <mxPoint x="410" y="725"/>
                        </Array>
                    </mxGeometry>
                </mxCell>
                <mxCell id="orV150WAPLaEgthSAnhB-68" value="Mise à jour" style="edgeLabel;html=1;align=center;verticalAlign=middle;resizable=0;points=[];" parent="orV150WAPLaEgthSAnhB-67" connectable="0" vertex="1">
                    <mxGeometry x="-0.18" y="-1" relative="1" as="geometry">
                        <mxPoint as="offset"/>
                    </mxGeometry>
                </mxCell>
                <mxCell id="orV150WAPLaEgthSAnhB-93" style="edgeStyle=orthogonalEdgeStyle;rounded=0;orthogonalLoop=1;jettySize=auto;html=1;exitX=1;exitY=0.75;exitDx=0;exitDy=0;entryX=0;entryY=0.75;entryDx=0;entryDy=0;" parent="1" source="orV150WAPLaEgthSAnhB-75" target="orV150WAPLaEgthSAnhB-90" edge="1">
                    <mxGeometry relative="1" as="geometry"/>
                </mxCell>
                <mxCell id="orV150WAPLaEgthSAnhB-99" value="sound/:value" style="edgeLabel;html=1;align=center;verticalAlign=middle;resizable=0;points=[];" parent="orV150WAPLaEgthSAnhB-93" connectable="0" vertex="1">
                    <mxGeometry x="0.0762" relative="1" as="geometry">
                        <mxPoint as="offset"/>
                    </mxGeometry>
                </mxCell>
                <mxCell id="orV150WAPLaEgthSAnhB-94" style="edgeStyle=orthogonalEdgeStyle;rounded=0;orthogonalLoop=1;jettySize=auto;html=1;exitX=1;exitY=0.5;exitDx=0;exitDy=0;" parent="1" source="orV150WAPLaEgthSAnhB-75" target="orV150WAPLaEgthSAnhB-90" edge="1">
                    <mxGeometry relative="1" as="geometry"/>
                </mxCell>
                <mxCell id="orV150WAPLaEgthSAnhB-98" value="/light/:value" style="edgeLabel;html=1;align=center;verticalAlign=middle;resizable=0;points=[];" parent="orV150WAPLaEgthSAnhB-94" connectable="0" vertex="1">
                    <mxGeometry x="-0.0727" y="1" relative="1" as="geometry">
                        <mxPoint as="offset"/>
                    </mxGeometry>
                </mxCell>
                <mxCell id="orV150WAPLaEgthSAnhB-95" style="edgeStyle=orthogonalEdgeStyle;rounded=0;orthogonalLoop=1;jettySize=auto;html=1;exitX=1;exitY=0.25;exitDx=0;exitDy=0;entryX=0;entryY=0.25;entryDx=0;entryDy=0;" parent="1" source="orV150WAPLaEgthSAnhB-75" target="orV150WAPLaEgthSAnhB-90" edge="1">
                    <mxGeometry relative="1" as="geometry"/>
                </mxCell>
                <mxCell id="orV150WAPLaEgthSAnhB-96" value="&lt;div&gt;/store/:value&lt;/div&gt;" style="edgeLabel;html=1;align=center;verticalAlign=middle;resizable=0;points=[];" parent="orV150WAPLaEgthSAnhB-95" connectable="0" vertex="1">
                    <mxGeometry x="-0.0246" y="-1" relative="1" as="geometry">
                        <mxPoint as="offset"/>
                    </mxGeometry>
                </mxCell>
                <mxCell id="orV150WAPLaEgthSAnhB-75" value="&lt;div&gt;Server&lt;/div&gt;&lt;div&gt;(publisher MQTT)&lt;br&gt;&lt;/div&gt;" style="html=1;whiteSpace=wrap;" parent="1" vertex="1">
                    <mxGeometry x="510" y="690" width="110" height="50" as="geometry"/>
                </mxCell>
                <mxCell id="orV150WAPLaEgthSAnhB-76" style="edgeStyle=orthogonalEdgeStyle;rounded=0;orthogonalLoop=1;jettySize=auto;html=1;entryX=0.76;entryY=1.02;entryDx=0;entryDy=0;entryPerimeter=0;" parent="1" edge="1">
                    <mxGeometry relative="1" as="geometry">
                        <Array as="points">
                            <mxPoint x="526" y="690"/>
                        </Array>
                        <mxPoint x="520" y="690" as="sourcePoint"/>
                        <mxPoint x="526" y="531" as="targetPoint"/>
                    </mxGeometry>
                </mxCell>
                <mxCell id="orV150WAPLaEgthSAnhB-77" value="Dessin synchrone" style="edgeLabel;html=1;align=center;verticalAlign=middle;resizable=0;points=[];" parent="orV150WAPLaEgthSAnhB-76" connectable="0" vertex="1">
                    <mxGeometry x="-0.0384" y="3" relative="1" as="geometry">
                        <mxPoint x="3" y="-64" as="offset"/>
                    </mxGeometry>
                </mxCell>
                <mxCell id="orV150WAPLaEgthSAnhB-78" style="edgeStyle=orthogonalEdgeStyle;rounded=0;orthogonalLoop=1;jettySize=auto;html=1;exitX=0.5;exitY=0;exitDx=0;exitDy=0;entryX=0.769;entryY=1.093;entryDx=0;entryDy=0;entryPerimeter=0;" parent="1" source="orV150WAPLaEgthSAnhB-75" target="orV150WAPLaEgthSAnhB-66" edge="1">
                    <mxGeometry relative="1" as="geometry">
                        <mxPoint x="596" y="536" as="targetPoint"/>
                        <Array as="points">
                            <mxPoint x="550" y="690"/>
                            <mxPoint x="550" y="536"/>
                            <mxPoint x="551" y="536"/>
                        </Array>
                    </mxGeometry>
                </mxCell>
                <mxCell id="orV150WAPLaEgthSAnhB-79" value="&lt;div&gt;Add/suppr Element&lt;/div&gt;&lt;div&gt;de l'environnement&lt;/div&gt;" style="edgeLabel;html=1;align=center;verticalAlign=middle;resizable=0;points=[];" parent="orV150WAPLaEgthSAnhB-78" connectable="0" vertex="1">
                    <mxGeometry x="0.34" y="3" relative="1" as="geometry">
                        <mxPoint x="2" y="2" as="offset"/>
                    </mxGeometry>
                </mxCell>
                <mxCell id="orV150WAPLaEgthSAnhB-80" style="edgeStyle=orthogonalEdgeStyle;rounded=0;orthogonalLoop=1;jettySize=auto;html=1;exitX=0.75;exitY=0;exitDx=0;exitDy=0;entryX=0.954;entryY=1.064;entryDx=0;entryDy=0;entryPerimeter=0;" parent="1" source="orV150WAPLaEgthSAnhB-75" target="orV150WAPLaEgthSAnhB-66" edge="1">
                    <mxGeometry relative="1" as="geometry">
                        <Array as="points">
                            <mxPoint x="623" y="605"/>
                            <mxPoint x="662" y="605"/>
                            <mxPoint x="662" y="580"/>
                        </Array>
                    </mxGeometry>
                </mxCell>
                <mxCell id="orV150WAPLaEgthSAnhB-81" value="&lt;div&gt;Change le terrain&lt;/div&gt;" style="edgeLabel;html=1;align=center;verticalAlign=middle;resizable=0;points=[];" parent="orV150WAPLaEgthSAnhB-80" connectable="0" vertex="1">
                    <mxGeometry x="-0.8003" y="2" relative="1" as="geometry">
                        <mxPoint x="36" y="-106" as="offset"/>
                    </mxGeometry>
                </mxCell>
                <mxCell id="orV150WAPLaEgthSAnhB-82" style="edgeStyle=orthogonalEdgeStyle;rounded=0;orthogonalLoop=1;jettySize=auto;html=1;exitX=1;exitY=0.25;exitDx=0;exitDy=0;entryX=0;entryY=0.25;entryDx=0;entryDy=0;" parent="1" source="orV150WAPLaEgthSAnhB-84" target="orV150WAPLaEgthSAnhB-65" edge="1">
                    <mxGeometry relative="1" as="geometry"/>
                </mxCell>
                <mxCell id="orV150WAPLaEgthSAnhB-83" value="Envoie msg" style="edgeLabel;html=1;align=center;verticalAlign=middle;resizable=0;points=[];" parent="orV150WAPLaEgthSAnhB-82" connectable="0" vertex="1">
                    <mxGeometry x="-0.28" relative="1" as="geometry">
                        <mxPoint x="14" y="1" as="offset"/>
                    </mxGeometry>
                </mxCell>
                <mxCell id="orV150WAPLaEgthSAnhB-84" value="&lt;div&gt;Interface&lt;/div&gt;&lt;div&gt;PJ&lt;br&gt;&lt;/div&gt;" style="html=1;whiteSpace=wrap;" parent="1" vertex="1">
                    <mxGeometry x="70" y="680" width="50" height="90" as="geometry"/>
                </mxCell>
                <mxCell id="orV150WAPLaEgthSAnhB-85" value="&lt;div&gt;Lumière&lt;/div&gt;&lt;div&gt;(subscriber)&lt;/div&gt;" style="html=1;whiteSpace=wrap;" parent="1" vertex="1">
                    <mxGeometry x="970" y="690" width="80" height="50" as="geometry"/>
                </mxCell>
                <mxCell id="orV150WAPLaEgthSAnhB-86" value="&lt;div&gt;Volet&lt;/div&gt;&lt;div&gt;(subscriber)&lt;/div&gt;" style="html=1;whiteSpace=wrap;" parent="1" vertex="1">
                    <mxGeometry x="970" y="610" width="80" height="50" as="geometry"/>
                </mxCell>
                <mxCell id="orV150WAPLaEgthSAnhB-87" value="&lt;div&gt;Enceinte&lt;/div&gt;&lt;div&gt;(subscriber)&lt;/div&gt;" style="html=1;whiteSpace=wrap;" parent="1" vertex="1">
                    <mxGeometry x="970" y="770" width="80" height="50" as="geometry"/>
                </mxCell>
                <mxCell id="orV150WAPLaEgthSAnhB-89" value="&lt;div&gt;Interface&lt;/div&gt;&lt;div&gt;MJ&lt;br&gt;&lt;/div&gt;" style="html=1;whiteSpace=wrap;" parent="1" vertex="1">
                    <mxGeometry x="520" y="810" width="110" height="50" as="geometry"/>
                </mxCell>
                <mxCell id="orV150WAPLaEgthSAnhB-100" style="edgeStyle=orthogonalEdgeStyle;rounded=0;orthogonalLoop=1;jettySize=auto;html=1;exitX=1;exitY=0.25;exitDx=0;exitDy=0;entryX=0;entryY=0.5;entryDx=0;entryDy=0;" parent="1" source="orV150WAPLaEgthSAnhB-90" target="orV150WAPLaEgthSAnhB-86" edge="1">
                    <mxGeometry relative="1" as="geometry"/>
                </mxCell>
                <mxCell id="orV150WAPLaEgthSAnhB-101" style="edgeStyle=orthogonalEdgeStyle;rounded=0;orthogonalLoop=1;jettySize=auto;html=1;exitX=1;exitY=0.5;exitDx=0;exitDy=0;entryX=0;entryY=0.5;entryDx=0;entryDy=0;" parent="1" source="orV150WAPLaEgthSAnhB-90" target="orV150WAPLaEgthSAnhB-85" edge="1">
                    <mxGeometry relative="1" as="geometry"/>
                </mxCell>
                <mxCell id="orV150WAPLaEgthSAnhB-102" style="edgeStyle=orthogonalEdgeStyle;rounded=0;orthogonalLoop=1;jettySize=auto;html=1;exitX=1;exitY=0.75;exitDx=0;exitDy=0;entryX=0;entryY=0.5;entryDx=0;entryDy=0;" parent="1" source="orV150WAPLaEgthSAnhB-90" target="orV150WAPLaEgthSAnhB-87" edge="1">
                    <mxGeometry relative="1" as="geometry"/>
                </mxCell>
                <mxCell id="orV150WAPLaEgthSAnhB-90" value="&lt;div&gt;Broker MQTT&lt;br&gt;&lt;/div&gt;&lt;div&gt;(mosquito)&lt;br&gt;&lt;/div&gt;" style="html=1;whiteSpace=wrap;" parent="1" vertex="1">
                    <mxGeometry x="730" y="690" width="110" height="50" as="geometry"/>
                </mxCell>
                <mxCell id="OoqK43-sp_e9B4Sx0cOa-35" style="edgeStyle=orthogonalEdgeStyle;rounded=0;orthogonalLoop=1;jettySize=auto;html=1;exitX=0.25;exitY=0;exitDx=0;exitDy=0;entryX=0.372;entryY=1.092;entryDx=0;entryDy=0;entryPerimeter=0;" parent="1" source="orV150WAPLaEgthSAnhB-89" target="orV150WAPLaEgthSAnhB-75" edge="1">
                    <mxGeometry relative="1" as="geometry"/>
                </mxCell>
                <mxCell id="OoqK43-sp_e9B4Sx0cOa-36" style="edgeStyle=orthogonalEdgeStyle;rounded=0;orthogonalLoop=1;jettySize=auto;html=1;exitX=0.75;exitY=1;exitDx=0;exitDy=0;entryX=0.676;entryY=-0.038;entryDx=0;entryDy=0;entryPerimeter=0;" parent="1" source="orV150WAPLaEgthSAnhB-75" target="orV150WAPLaEgthSAnhB-89" edge="1">
                    <mxGeometry relative="1" as="geometry"/>
                </mxCell>
                <mxCell id="orV150WAPLaEgthSAnhB-104" value="&lt;div&gt;/store/:value&lt;/div&gt;" style="edgeLabel;html=1;align=center;verticalAlign=middle;resizable=0;points=[];" parent="1" connectable="0" vertex="1">
                    <mxGeometry x="909.9999999999999" y="660" as="geometry"/>
                </mxCell>
                <mxCell id="orV150WAPLaEgthSAnhB-105" value="/light/:value" style="edgeLabel;html=1;align=center;verticalAlign=middle;resizable=0;points=[];" parent="1" connectable="0" vertex="1">
                    <mxGeometry x="920" y="715" as="geometry"/>
                </mxCell>
                <mxCell id="orV150WAPLaEgthSAnhB-106" value="sound/:value" style="edgeLabel;html=1;align=center;verticalAlign=middle;resizable=0;points=[];" parent="1" connectable="0" vertex="1">
                    <mxGeometry x="910" y="770" as="geometry"/>
                </mxCell>
                <mxCell id="rrb0ZDgDaH0qyxRiOYhU-6" style="edgeStyle=orthogonalEdgeStyle;rounded=0;orthogonalLoop=1;jettySize=auto;html=1;exitX=0.5;exitY=1;exitDx=0;exitDy=0;entryX=0.25;entryY=0;entryDx=0;entryDy=0;" parent="1" source="DEdySj9RBdpoS25cQ73x-5" target="DEdySj9RBdpoS25cQ73x-12" edge="1">
                    <mxGeometry relative="1" as="geometry">
                        <Array as="points">
                            <mxPoint x="-1205" y="410"/>
                            <mxPoint x="-1180" y="410"/>
                        </Array>
                    </mxGeometry>
                </mxCell>
                <mxCell id="ugIMF8ThDM7Jmgfe9TkD-32" value="Dessine" style="edgeLabel;html=1;align=center;verticalAlign=middle;resizable=0;points=[];" parent="rrb0ZDgDaH0qyxRiOYhU-6" connectable="0" vertex="1">
                    <mxGeometry x="-0.5882" y="-4" relative="1" as="geometry">
                        <mxPoint as="offset"/>
                    </mxGeometry>
                </mxCell>
                <mxCell id="DEdySj9RBdpoS25cQ73x-5" value="Smartphone" style="html=1;whiteSpace=wrap;fillColor=#ffcd28;gradientColor=#ffa500;strokeColor=#d79b00;" parent="1" vertex="1">
                    <mxGeometry x="-1260" y="265" width="110" height="50" as="geometry"/>
                </mxCell>
                <mxCell id="OoqK43-sp_e9B4Sx0cOa-38" style="edgeStyle=orthogonalEdgeStyle;rounded=0;orthogonalLoop=1;jettySize=auto;html=1;exitX=0.25;exitY=1;exitDx=0;exitDy=0;" parent="1" source="DEdySj9RBdpoS25cQ73x-6" target="DEdySj9RBdpoS25cQ73x-12" edge="1">
                    <mxGeometry relative="1" as="geometry">
                        <Array as="points">
                            <mxPoint x="-1010" y="315"/>
                            <mxPoint x="-1010" y="399"/>
                            <mxPoint x="-1090" y="399"/>
                        </Array>
                    </mxGeometry>
                </mxCell>
                <mxCell id="ugIMF8ThDM7Jmgfe9TkD-33" value="Dessine" style="edgeLabel;html=1;align=center;verticalAlign=middle;resizable=0;points=[];" parent="OoqK43-sp_e9B4Sx0cOa-38" connectable="0" vertex="1">
                    <mxGeometry x="-0.7" y="-2" relative="1" as="geometry">
                        <mxPoint as="offset"/>
                    </mxGeometry>
                </mxCell>
                <mxCell id="ugIMF8ThDM7Jmgfe9TkD-47" style="edgeStyle=orthogonalEdgeStyle;rounded=0;orthogonalLoop=1;jettySize=auto;html=1;exitX=0.5;exitY=1;exitDx=0;exitDy=0;entryX=1;entryY=0;entryDx=0;entryDy=0;" parent="1" edge="1">
                    <mxGeometry relative="1" as="geometry">
                        <mxPoint x="-1000" y="315" as="sourcePoint"/>
                        <mxPoint x="-1045" y="570" as="targetPoint"/>
                        <Array as="points">
                            <mxPoint x="-1000" y="420"/>
                            <mxPoint x="-1045" y="420"/>
                        </Array>
                    </mxGeometry>
                </mxCell>
                <mxCell id="ugIMF8ThDM7Jmgfe9TkD-50" value="Envoie msg" style="edgeLabel;html=1;align=center;verticalAlign=middle;resizable=0;points=[];" parent="ugIMF8ThDM7Jmgfe9TkD-47" connectable="0" vertex="1">
                    <mxGeometry x="-0.3227" relative="1" as="geometry">
                        <mxPoint as="offset"/>
                    </mxGeometry>
                </mxCell>
                <mxCell id="ugIMF8ThDM7Jmgfe9TkD-60" style="edgeStyle=orthogonalEdgeStyle;rounded=0;orthogonalLoop=1;jettySize=auto;html=1;exitX=0.5;exitY=1;exitDx=0;exitDy=0;entryX=1;entryY=0;entryDx=0;entryDy=0;" parent="1" source="DEdySj9RBdpoS25cQ73x-6" target="DEdySj9RBdpoS25cQ73x-12" edge="1">
                    <mxGeometry relative="1" as="geometry"/>
                </mxCell>
                <mxCell id="ugIMF8ThDM7Jmgfe9TkD-61" value="Actualise terrain" style="edgeLabel;html=1;align=center;verticalAlign=middle;resizable=0;points=[];" parent="ugIMF8ThDM7Jmgfe9TkD-60" connectable="0" vertex="1">
                    <mxGeometry x="-0.1284" y="3" relative="1" as="geometry">
                        <mxPoint as="offset"/>
                    </mxGeometry>
                </mxCell>
                <mxCell id="DEdySj9RBdpoS25cQ73x-6" value="&lt;div&gt;Laptop&lt;/div&gt;" style="html=1;whiteSpace=wrap;fillColor=#ffcd28;gradientColor=#ffa500;strokeColor=#d79b00;" parent="1" vertex="1">
                    <mxGeometry x="-1040" y="265" width="110" height="50" as="geometry"/>
                </mxCell>
                <mxCell id="DEdySj9RBdpoS25cQ73x-7" value="&lt;div&gt;Commun Screen&lt;/div&gt;" style="html=1;whiteSpace=wrap;fillColor=#ffcd28;gradientColor=#ffa500;strokeColor=#d79b00;" parent="1" vertex="1">
                    <mxGeometry x="-790" y="265" width="110" height="50" as="geometry"/>
                </mxCell>
                <mxCell id="ugIMF8ThDM7Jmgfe9TkD-41" style="edgeStyle=orthogonalEdgeStyle;rounded=0;orthogonalLoop=1;jettySize=auto;html=1;exitX=1;exitY=0.25;exitDx=0;exitDy=0;entryX=0;entryY=0.25;entryDx=0;entryDy=0;" parent="1" source="DEdySj9RBdpoS25cQ73x-12" target="ugIMF8ThDM7Jmgfe9TkD-34" edge="1">
                    <mxGeometry relative="1" as="geometry"/>
                </mxCell>
                <mxCell id="ugIMF8ThDM7Jmgfe9TkD-53" value="&lt;div&gt;socket msg&lt;/div&gt;" style="edgeLabel;html=1;align=center;verticalAlign=middle;resizable=0;points=[];" parent="ugIMF8ThDM7Jmgfe9TkD-41" connectable="0" vertex="1">
                    <mxGeometry x="-0.1118" y="1" relative="1" as="geometry">
                        <mxPoint as="offset"/>
                    </mxGeometry>
                </mxCell>
                <mxCell id="ugIMF8ThDM7Jmgfe9TkD-43" style="edgeStyle=orthogonalEdgeStyle;rounded=0;orthogonalLoop=1;jettySize=auto;html=1;exitX=1;exitY=0.5;exitDx=0;exitDy=0;entryX=0;entryY=0.5;entryDx=0;entryDy=0;" parent="1" source="DEdySj9RBdpoS25cQ73x-12" target="ugIMF8ThDM7Jmgfe9TkD-34" edge="1">
                    <mxGeometry relative="1" as="geometry"/>
                </mxCell>
                <mxCell id="ugIMF8ThDM7Jmgfe9TkD-54" value="socket dessin" style="edgeLabel;html=1;align=center;verticalAlign=middle;resizable=0;points=[];" parent="ugIMF8ThDM7Jmgfe9TkD-43" connectable="0" vertex="1">
                    <mxGeometry x="0.0647" relative="1" as="geometry">
                        <mxPoint as="offset"/>
                    </mxGeometry>
                </mxCell>
                <mxCell id="ugIMF8ThDM7Jmgfe9TkD-48" style="edgeStyle=orthogonalEdgeStyle;rounded=0;orthogonalLoop=1;jettySize=auto;html=1;exitX=0.5;exitY=0;exitDx=0;exitDy=0;entryX=0.75;entryY=1;entryDx=0;entryDy=0;" parent="1" source="DEdySj9RBdpoS25cQ73x-12" target="DEdySj9RBdpoS25cQ73x-5" edge="1">
                    <mxGeometry relative="1" as="geometry">
                        <Array as="points">
                            <mxPoint x="-1130" y="400"/>
                            <mxPoint x="-1177" y="400"/>
                        </Array>
                    </mxGeometry>
                </mxCell>
                <mxCell id="ugIMF8ThDM7Jmgfe9TkD-49" value="Reçoit msg" style="edgeLabel;html=1;align=center;verticalAlign=middle;resizable=0;points=[];" parent="ugIMF8ThDM7Jmgfe9TkD-48" connectable="0" vertex="1">
                    <mxGeometry x="0.1886" y="-1" relative="1" as="geometry">
                        <mxPoint as="offset"/>
                    </mxGeometry>
                </mxCell>
                <mxCell id="ugIMF8ThDM7Jmgfe9TkD-55" style="edgeStyle=orthogonalEdgeStyle;rounded=0;orthogonalLoop=1;jettySize=auto;html=1;exitX=0;exitY=0;exitDx=0;exitDy=0;entryX=0.25;entryY=1;entryDx=0;entryDy=0;strokeColor=default;" parent="1" source="DEdySj9RBdpoS25cQ73x-12" target="DEdySj9RBdpoS25cQ73x-5" edge="1">
                    <mxGeometry relative="1" as="geometry"/>
                </mxCell>
                <mxCell id="ugIMF8ThDM7Jmgfe9TkD-56" value="&lt;div&gt;Actualise Terrain&lt;/div&gt;" style="edgeLabel;html=1;align=center;verticalAlign=middle;resizable=0;points=[];" parent="ugIMF8ThDM7Jmgfe9TkD-55" connectable="0" vertex="1">
                    <mxGeometry x="0.1972" y="1" relative="1" as="geometry">
                        <mxPoint as="offset"/>
                    </mxGeometry>
                </mxCell>
                <mxCell id="DEdySj9RBdpoS25cQ73x-12" value="APK ReactJS" style="html=1;whiteSpace=wrap;fillColor=#e6d0de;gradientColor=#d5739d;strokeColor=#996185;" parent="1" vertex="1">
                    <mxGeometry x="-1230" y="570" width="200" height="100" as="geometry"/>
                </mxCell>
                <mxCell id="C4ztlMbri81NeWR5jCJK-1" value="&lt;div&gt;synchroniser affichage&lt;/div&gt;" style="edgeStyle=orthogonalEdgeStyle;rounded=0;orthogonalLoop=1;jettySize=auto;html=1;exitX=0.25;exitY=0;exitDx=0;exitDy=0;entryX=0.75;entryY=1;entryDx=0;entryDy=0;" parent="1" source="ugIMF8ThDM7Jmgfe9TkD-63" target="DEdySj9RBdpoS25cQ73x-7" edge="1">
                    <mxGeometry relative="1" as="geometry">
                        <mxPoint x="-762.5" y="470" as="sourcePoint"/>
                    </mxGeometry>
                </mxCell>
                <mxCell id="C4ztlMbri81NeWR5jCJK-2" value="&lt;div&gt;Allume / éteint&lt;/div&gt;" style="edgeStyle=orthogonalEdgeStyle;rounded=0;orthogonalLoop=1;jettySize=auto;html=1;exitX=0.5;exitY=0;exitDx=0;exitDy=0;" parent="1" source="ugIMF8ThDM7Jmgfe9TkD-63" target="OoqK43-sp_e9B4Sx0cOa-37" edge="1">
                    <mxGeometry relative="1" as="geometry">
                        <Array as="points">
                            <mxPoint x="-320" y="392"/>
                            <mxPoint x="-565" y="392"/>
                        </Array>
                        <mxPoint x="-537.5" y="470" as="sourcePoint"/>
                    </mxGeometry>
                </mxCell>
                <mxCell id="DEdySj9RBdpoS25cQ73x-16" value="" style="rounded=0;whiteSpace=wrap;html=1;fillColor=#d5e8d4;strokeColor=#82b366;opacity=40;" parent="1" vertex="1">
                    <mxGeometry x="-995" y="820" width="290" height="140" as="geometry"/>
                </mxCell>
                <mxCell id="DEdySj9RBdpoS25cQ73x-17" value="Base de données Cloud" style="html=1;whiteSpace=wrap;fillColor=#d5e8d4;gradientColor=#97d077;strokeColor=#82b366;" parent="1" vertex="1">
                    <mxGeometry x="-945" y="840" width="190" height="100" as="geometry"/>
                </mxCell>
                <mxCell id="OoqK43-sp_e9B4Sx0cOa-37" value="&lt;div&gt;Lampe&lt;/div&gt;" style="html=1;whiteSpace=wrap;fillColor=#ffcd28;gradientColor=#ffa500;strokeColor=#d79b00;" parent="1" vertex="1">
                    <mxGeometry x="-620" y="265" width="110" height="50" as="geometry"/>
                </mxCell>
                <mxCell id="ugIMF8ThDM7Jmgfe9TkD-2" style="edgeStyle=orthogonalEdgeStyle;rounded=0;orthogonalLoop=1;jettySize=auto;html=1;exitX=0.5;exitY=0;exitDx=0;exitDy=0;" parent="1" edge="1">
                    <mxGeometry relative="1" as="geometry">
                        <mxPoint x="-565" y="520" as="targetPoint"/>
                    </mxGeometry>
                </mxCell>
                <mxCell id="ugIMF8ThDM7Jmgfe9TkD-12" value="&lt;div&gt;light/:value&lt;/div&gt;" style="edgeLabel;html=1;align=center;verticalAlign=middle;resizable=0;points=[];" parent="ugIMF8ThDM7Jmgfe9TkD-2" connectable="0" vertex="1">
                    <mxGeometry x="-0.1259" y="2" relative="1" as="geometry">
                        <mxPoint x="1" as="offset"/>
                    </mxGeometry>
                </mxCell>
                <mxCell id="ugIMF8ThDM7Jmgfe9TkD-16" style="edgeStyle=orthogonalEdgeStyle;rounded=0;orthogonalLoop=1;jettySize=auto;html=1;exitX=0.25;exitY=0;exitDx=0;exitDy=0;" parent="1" edge="1">
                    <mxGeometry relative="1" as="geometry">
                        <mxPoint x="-735" y="520" as="targetPoint"/>
                    </mxGeometry>
                </mxCell>
                <mxCell id="ugIMF8ThDM7Jmgfe9TkD-17" value="&lt;div&gt;public/:value&lt;/div&gt;" style="edgeLabel;html=1;align=center;verticalAlign=middle;resizable=0;points=[];" parent="ugIMF8ThDM7Jmgfe9TkD-16" connectable="0" vertex="1">
                    <mxGeometry x="0.3107" y="1" relative="1" as="geometry">
                        <mxPoint as="offset"/>
                    </mxGeometry>
                </mxCell>
                <mxCell id="ugIMF8ThDM7Jmgfe9TkD-22" style="edgeStyle=orthogonalEdgeStyle;rounded=0;orthogonalLoop=1;jettySize=auto;html=1;exitX=0.75;exitY=0;exitDx=0;exitDy=0;entryX=0.5;entryY=1;entryDx=0;entryDy=0;" parent="1" source="ugIMF8ThDM7Jmgfe9TkD-63" target="ugIMF8ThDM7Jmgfe9TkD-21" edge="1">
                    <mxGeometry relative="1" as="geometry">
                        <mxPoint x="-405" y="470" as="sourcePoint"/>
                        <Array as="points">
                            <mxPoint x="-380" y="560"/>
                            <mxPoint x="-380" y="315"/>
                        </Array>
                    </mxGeometry>
                </mxCell>
                <mxCell id="ugIMF8ThDM7Jmgfe9TkD-23" value="&lt;div&gt;Allume / éteint&lt;/div&gt;" style="edgeLabel;html=1;align=center;verticalAlign=middle;resizable=0;points=[];" parent="ugIMF8ThDM7Jmgfe9TkD-22" connectable="0" vertex="1">
                    <mxGeometry x="-0.0714" y="-1" relative="1" as="geometry">
                        <mxPoint as="offset"/>
                    </mxGeometry>
                </mxCell>
                <mxCell id="ugIMF8ThDM7Jmgfe9TkD-21" value="Enceinte" style="html=1;whiteSpace=wrap;fillColor=#ffcd28;gradientColor=#ffa500;strokeColor=#d79b00;" parent="1" vertex="1">
                    <mxGeometry x="-460" y="265" width="110" height="50" as="geometry"/>
                </mxCell>
                <mxCell id="ugIMF8ThDM7Jmgfe9TkD-35" style="edgeStyle=orthogonalEdgeStyle;rounded=0;orthogonalLoop=1;jettySize=auto;html=1;exitX=1;exitY=0.25;exitDx=0;exitDy=0;entryX=0;entryY=0.25;entryDx=0;entryDy=0;" parent="1" source="ugIMF8ThDM7Jmgfe9TkD-34" edge="1">
                    <mxGeometry relative="1" as="geometry">
                        <mxPoint x="-640" y="595" as="targetPoint"/>
                    </mxGeometry>
                </mxCell>
                <mxCell id="ugIMF8ThDM7Jmgfe9TkD-64" value="API REST&lt;br&gt;(GET Request)" style="edgeLabel;html=1;align=center;verticalAlign=middle;resizable=0;points=[];" parent="ugIMF8ThDM7Jmgfe9TkD-35" connectable="0" vertex="1">
                    <mxGeometry x="-0.0769" y="-2" relative="1" as="geometry">
                        <mxPoint as="offset"/>
                    </mxGeometry>
                </mxCell>
                <mxCell id="ugIMF8ThDM7Jmgfe9TkD-25" value="Store" style="html=1;whiteSpace=wrap;fillColor=#ffcd28;gradientColor=#ffa500;strokeColor=#d79b00;" parent="1" vertex="1">
                    <mxGeometry x="-300" y="265" width="110" height="50" as="geometry"/>
                </mxCell>
                <mxCell id="ugIMF8ThDM7Jmgfe9TkD-30" style="edgeStyle=orthogonalEdgeStyle;rounded=0;orthogonalLoop=1;jettySize=auto;html=1;exitX=1;exitY=0.25;exitDx=0;exitDy=0;entryX=0.5;entryY=1;entryDx=0;entryDy=0;" parent="1" source="ugIMF8ThDM7Jmgfe9TkD-63" target="ugIMF8ThDM7Jmgfe9TkD-25" edge="1">
                    <mxGeometry relative="1" as="geometry">
                        <mxPoint x="-245" y="470" as="sourcePoint"/>
                    </mxGeometry>
                </mxCell>
                <mxCell id="ugIMF8ThDM7Jmgfe9TkD-31" value="Ouvre/ Ferme" style="edgeLabel;html=1;align=center;verticalAlign=middle;resizable=0;points=[];" parent="ugIMF8ThDM7Jmgfe9TkD-30" connectable="0" vertex="1">
                    <mxGeometry x="-0.1035" relative="1" as="geometry">
                        <mxPoint as="offset"/>
                    </mxGeometry>
                </mxCell>
                <mxCell id="ugIMF8ThDM7Jmgfe9TkD-36" style="edgeStyle=orthogonalEdgeStyle;rounded=0;orthogonalLoop=1;jettySize=auto;html=1;exitX=1;exitY=0.5;exitDx=0;exitDy=0;" parent="1" source="ugIMF8ThDM7Jmgfe9TkD-34" edge="1">
                    <mxGeometry relative="1" as="geometry">
                        <mxPoint x="-640" y="620" as="targetPoint"/>
                    </mxGeometry>
                </mxCell>
                <mxCell id="ugIMF8ThDM7Jmgfe9TkD-37" style="edgeStyle=orthogonalEdgeStyle;rounded=0;orthogonalLoop=1;jettySize=auto;html=1;exitX=1;exitY=0.75;exitDx=0;exitDy=0;entryX=0;entryY=0.75;entryDx=0;entryDy=0;" parent="1" source="ugIMF8ThDM7Jmgfe9TkD-34" edge="1">
                    <mxGeometry relative="1" as="geometry">
                        <mxPoint x="-640" y="645" as="targetPoint"/>
                    </mxGeometry>
                </mxCell>
                <mxCell id="ugIMF8ThDM7Jmgfe9TkD-40" style="edgeStyle=orthogonalEdgeStyle;rounded=0;orthogonalLoop=1;jettySize=auto;html=1;exitX=1;exitY=1;exitDx=0;exitDy=0;entryX=0;entryY=1;entryDx=0;entryDy=0;" parent="1" source="ugIMF8ThDM7Jmgfe9TkD-34" edge="1">
                    <mxGeometry relative="1" as="geometry">
                        <mxPoint x="-640" y="670" as="targetPoint"/>
                        <Array as="points">
                            <mxPoint x="-680" y="670"/>
                            <mxPoint x="-680" y="670"/>
                        </Array>
                    </mxGeometry>
                </mxCell>
                <mxCell id="ugIMF8ThDM7Jmgfe9TkD-45" style="edgeStyle=orthogonalEdgeStyle;rounded=0;orthogonalLoop=1;jettySize=auto;html=1;exitX=0.5;exitY=1;exitDx=0;exitDy=0;entryX=0.5;entryY=0;entryDx=0;entryDy=0;" parent="1" source="ugIMF8ThDM7Jmgfe9TkD-34" target="DEdySj9RBdpoS25cQ73x-17" edge="1">
                    <mxGeometry relative="1" as="geometry"/>
                </mxCell>
                <mxCell id="ugIMF8ThDM7Jmgfe9TkD-46" value="HTTP" style="edgeLabel;html=1;align=center;verticalAlign=middle;resizable=0;points=[];" parent="ugIMF8ThDM7Jmgfe9TkD-45" connectable="0" vertex="1">
                    <mxGeometry x="-0.1754" y="4" relative="1" as="geometry">
                        <mxPoint as="offset"/>
                    </mxGeometry>
                </mxCell>
                <mxCell id="ugIMF8ThDM7Jmgfe9TkD-51" style="edgeStyle=orthogonalEdgeStyle;rounded=0;orthogonalLoop=1;jettySize=auto;html=1;exitX=0;exitY=0.75;exitDx=0;exitDy=0;entryX=1;entryY=0.75;entryDx=0;entryDy=0;" parent="1" source="ugIMF8ThDM7Jmgfe9TkD-34" target="DEdySj9RBdpoS25cQ73x-12" edge="1">
                    <mxGeometry relative="1" as="geometry"/>
                </mxCell>
                <mxCell id="ugIMF8ThDM7Jmgfe9TkD-52" value="&lt;div&gt;socket msg&lt;/div&gt;" style="edgeLabel;html=1;align=center;verticalAlign=middle;resizable=0;points=[];" parent="ugIMF8ThDM7Jmgfe9TkD-51" connectable="0" vertex="1">
                    <mxGeometry x="-0.1529" y="1" relative="1" as="geometry">
                        <mxPoint as="offset"/>
                    </mxGeometry>
                </mxCell>
                <mxCell id="ugIMF8ThDM7Jmgfe9TkD-57" style="edgeStyle=orthogonalEdgeStyle;rounded=0;orthogonalLoop=1;jettySize=auto;html=1;exitX=0;exitY=1;exitDx=0;exitDy=0;entryX=1;entryY=1;entryDx=0;entryDy=0;" parent="1" source="ugIMF8ThDM7Jmgfe9TkD-34" target="DEdySj9RBdpoS25cQ73x-12" edge="1">
                    <mxGeometry relative="1" as="geometry"/>
                </mxCell>
                <mxCell id="ugIMF8ThDM7Jmgfe9TkD-58" value="socket dessin" style="edgeLabel;html=1;align=center;verticalAlign=middle;resizable=0;points=[];" parent="ugIMF8ThDM7Jmgfe9TkD-57" connectable="0" vertex="1">
                    <mxGeometry x="0.1235" relative="1" as="geometry">
                        <mxPoint x="8" as="offset"/>
                    </mxGeometry>
                </mxCell>
                <mxCell id="ugIMF8ThDM7Jmgfe9TkD-34" value="&lt;div&gt;Server NodeJS monoblock&lt;/div&gt;" style="html=1;whiteSpace=wrap;fillColor=#e6d0de;gradientColor=#d5739d;strokeColor=#996185;" parent="1" vertex="1">
                    <mxGeometry x="-950" y="570" width="200" height="100" as="geometry"/>
                </mxCell>
                <mxCell id="ugIMF8ThDM7Jmgfe9TkD-44" style="edgeStyle=orthogonalEdgeStyle;rounded=0;orthogonalLoop=1;jettySize=auto;html=1;exitX=0.5;exitY=1;exitDx=0;exitDy=0;" parent="1" source="DEdySj9RBdpoS25cQ73x-16" target="DEdySj9RBdpoS25cQ73x-16" edge="1">
                    <mxGeometry relative="1" as="geometry"/>
                </mxCell>
                <mxCell id="ugIMF8ThDM7Jmgfe9TkD-63" value="OpenHAB" style="html=1;whiteSpace=wrap;fillColor=#e6d0de;gradientColor=#d5739d;strokeColor=#996185;" parent="1" vertex="1">
                    <mxGeometry x="-420" y="560" width="200" height="100" as="geometry"/>
                </mxCell>
                <mxCell id="3" style="edgeStyle=none;html=1;exitX=1;exitY=0.5;exitDx=0;exitDy=0;entryX=0;entryY=0.75;entryDx=0;entryDy=0;" edge="1" parent="1" source="2" target="ugIMF8ThDM7Jmgfe9TkD-63">
                    <mxGeometry relative="1" as="geometry"/>
                </mxCell>
                <mxCell id="4" value="Rest API" style="edgeLabel;html=1;align=center;verticalAlign=middle;resizable=0;points=[];" vertex="1" connectable="0" parent="3">
                    <mxGeometry x="-0.4707" y="1" relative="1" as="geometry">
                        <mxPoint x="21" y="1" as="offset"/>
                    </mxGeometry>
                </mxCell>
                <mxCell id="2" value="&lt;div&gt;Server Node-RED&lt;/div&gt;" style="html=1;whiteSpace=wrap;fillColor=#e6d0de;gradientColor=#d5739d;strokeColor=#996185;" vertex="1" parent="1">
                    <mxGeometry x="-640" y="585" width="110" height="100" as="geometry"/>
                </mxCell>
            </root>
        </mxGraphModel>
    </diagram>
</mxfile>